<?xml version="1.0" standalone="no"?>
<!DOCTYPE svg PUBLIC "-//W3C//DTD SVG 20010904//EN"
 "http://www.w3.org/TR/2001/REC-SVG-20010904/DTD/svg10.dtd">
<svg version="1.0" xmlns="http://www.w3.org/2000/svg"
 viewBox="0 0 128 128" width="128" height="128">

<g transform="translate(0.000000,2400.000000) scale(0.100000,-0.100000)"
fill="#000000" stroke="none">
<path d="M11918 19444 c-3 -2 -95 -7 -204 -9 -222 -5 -426 -19 -524 -34 -143
-23 -183 -28 -207 -23 -25 5 -100 -14 -118 -30 -5 -4 -35 -8 -67 -8 -32 0 -58
-4 -58 -10 0 -5 -16 -10 -35 -10 -22 0 -44 -8 -57 -20 -15 -13 -25 -17 -32
-10 -14 14 -42 12 -56 -5 -8 -9 -22 -12 -41 -8 -17 3 -35 0 -44 -7 -8 -6 -27
-13 -42 -15 -29 -2 -113 -30 -148 -48 -10 -5 -45 -16 -77 -23 -32 -8 -79 -25
-106 -39 -26 -14 -68 -29 -93 -33 -26 -5 -71 -23 -101 -40 -31 -18 -61 -32
-68 -32 -7 0 -32 -13 -57 -30 -24 -16 -50 -30 -57 -30 -6 0 -33 -13 -59 -30
-26 -16 -52 -30 -57 -30 -6 0 -10 -4 -10 -10 0 -5 -5 -10 -11 -10 -5 0 -37
-19 -71 -42 -33 -24 -68 -47 -77 -53 -29 -18 -136 -109 -150 -128 -7 -10 -38
-34 -68 -54 -30 -19 -57 -41 -60 -50 -3 -8 -49 -59 -102 -112 -92 -93 -171
-189 -171 -208 0 -5 -20 -30 -45 -55 -28 -29 -45 -56 -45 -71 0 -13 -11 -33
-25 -45 -13 -12 -27 -34 -31 -49 -4 -15 -15 -35 -25 -43 -10 -8 -23 -35 -27
-60 -5 -25 -21 -70 -35 -101 -27 -58 -46 -123 -51 -172 -2 -16 -8 -32 -13 -35
-6 -4 -11 -20 -11 -37 0 -16 -7 -75 -15 -130 -10 -67 -12 -106 -5 -118 6 -12
6 -29 -2 -50 -11 -34 -6 -112 16 -259 8 -48 -8 -55 -73 -33 -71 25 -150 45
-223 55 -99 15 -365 21 -395 10 -16 -6 -33 -6 -43 -1 -11 6 -35 5 -62 -1 -25
-5 -70 -13 -101 -17 -30 -5 -65 -13 -77 -20 -11 -6 -31 -11 -44 -11 -13 0 -35
-8 -48 -17 -14 -10 -32 -16 -41 -15 -9 2 -43 -9 -75 -24 -124 -55 -183 -85
-188 -93 -3 -5 -32 -21 -63 -36 -32 -15 -71 -38 -88 -50 -16 -12 -49 -32 -72
-44 -24 -12 -43 -25 -43 -30 0 -9 -85 -71 -96 -71 -27 0 -336 -308 -361 -360
-9 -19 -30 -50 -47 -68 -17 -18 -30 -36 -29 -40 1 -4 -4 -16 -11 -27 -7 -11
-16 -32 -20 -47 -3 -16 -13 -28 -21 -28 -8 0 -15 -6 -15 -13 0 -8 -8 -21 -18
-30 -10 -9 -24 -39 -32 -67 -8 -28 -22 -58 -32 -67 -10 -9 -18 -23 -18 -31 0
-20 -19 -80 -36 -113 -7 -14 -15 -41 -18 -60 -2 -19 -10 -47 -16 -64 -13 -30
-30 -106 -31 -135 0 -8 -7 -32 -15 -52 -7 -21 -11 -44 -8 -51 3 -8 -5 -50 -17
-93 -13 -44 -24 -113 -26 -154 -4 -111 -24 -234 -43 -271 -4 -9 -7 -76 -6
-150 2 -74 -3 -167 -10 -207 -8 -49 -9 -84 -3 -105 5 -18 10 -77 10 -132 1
-55 5 -116 10 -135 4 -19 10 -57 12 -85 5 -58 24 -166 38 -211 5 -17 9 -45 9
-64 0 -18 4 -49 9 -69 6 -20 17 -70 26 -111 9 -41 20 -93 25 -115 4 -22 14
-67 21 -100 7 -33 16 -64 21 -69 4 -6 8 -21 8 -35 0 -25 3 -38 40 -147 11 -33
20 -66 20 -73 0 -6 9 -31 20 -53 11 -23 20 -49 20 -57 0 -9 9 -27 20 -41 11
-14 20 -31 20 -38 0 -7 6 -22 12 -34 20 -34 100 -118 113 -118 19 0 52 53 60
95 9 50 9 274 -1 338 -4 27 -12 51 -18 53 -7 3 -11 27 -10 62 1 32 -4 69 -12
84 -8 15 -14 49 -14 75 0 27 -7 58 -15 70 -9 12 -15 39 -15 60 1 58 -18 195
-31 220 -7 12 -9 39 -6 60 3 21 2 58 -4 83 -5 25 -12 72 -15 105 -3 33 -7 80
-9 105 -4 37 -16 270 -16 305 0 93 12 322 20 395 6 52 15 131 20 175 4 44 15
120 25 168 9 49 14 92 11 97 -3 5 0 20 6 32 7 13 18 55 25 93 14 78 34 157 57
225 9 25 21 65 28 90 11 40 58 151 94 220 70 137 97 171 236 310 99 98 171
160 186 160 5 0 26 16 47 35 21 19 40 35 42 35 6 0 99 63 119 81 11 9 42 24
69 33 46 16 98 38 179 76 21 10 51 22 67 25 17 4 32 11 35 16 4 5 26 9 50 9
40 0 114 13 155 28 27 10 63 12 191 12 151 0 238 -6 291 -21 21 -5 67 -12 101
-14 34 -2 81 -10 104 -19 49 -18 95 -21 143 -8 51 13 80 30 80 48 0 8 10 18
23 23 44 17 87 61 87 90 0 15 5 32 12 39 8 8 13 83 14 258 2 195 6 257 19 302
26 86 46 151 65 212 10 30 21 70 24 89 3 19 10 39 15 45 5 6 31 52 57 101 26
50 60 108 75 129 16 22 29 44 29 50 0 13 99 106 113 106 6 0 8 3 5 6 -15 14
71 107 197 210 17 14 48 41 69 60 21 19 42 34 47 34 12 0 89 53 89 62 0 4 6 8
14 8 7 0 19 7 26 15 11 13 169 95 183 95 3 0 33 16 66 35 32 19 65 35 73 35 7
0 29 11 49 24 21 14 58 27 92 31 32 4 60 11 63 16 3 5 16 9 29 9 13 0 27 5 30
10 3 6 16 10 28 10 12 0 36 9 52 20 17 11 43 20 58 20 15 0 40 6 55 14 15 7
50 17 77 21 28 4 65 13 84 21 20 8 38 11 43 6 5 -5 32 -3 61 6 29 8 70 18 92
22 22 4 48 11 58 15 10 4 53 9 95 11 85 3 152 12 167 23 10 7 67 7 92 -1 6 -1
18 6 27 17 13 18 17 18 37 7 23 -15 165 -15 185 0 6 4 37 8 70 10 32 1 65 6
72 11 8 7 21 6 36 -3 16 -8 40 -10 72 -5 85 11 168 13 187 3 14 -7 22 -5 31 8
11 14 14 15 18 2 7 -17 64 -22 74 -7 3 5 13 8 22 5 36 -11 271 -16 277 -6 8
12 45 13 45 1 0 -12 201 -20 221 -8 10 7 26 5 50 -6 28 -13 125 -26 202 -26 9
0 32 -1 50 -1 17 -1 69 -2 115 -3 45 0 82 -4 82 -8 0 -12 113 -30 120 -19 4 7
11 5 20 -5 8 -9 29 -15 59 -15 26 0 72 -7 103 -15 31 -8 74 -13 95 -11 22 2
48 -3 62 -12 13 -9 40 -17 60 -18 20 -1 63 -7 96 -14 33 -7 74 -13 90 -14 17
0 37 -5 45 -11 23 -15 118 -36 180 -39 31 -2 70 -11 87 -19 17 -9 50 -21 74
-27 24 -6 71 -18 104 -26 33 -8 83 -20 110 -27 28 -6 52 -14 55 -18 3 -3 28
-9 55 -13 28 -4 83 -18 124 -32 40 -13 86 -24 101 -24 15 0 33 -7 40 -15 9
-11 22 -14 41 -10 15 3 30 1 34 -4 3 -6 16 -11 29 -11 13 0 31 -9 40 -19 9
-10 29 -21 44 -24 110 -23 162 -37 191 -53 34 -17 82 -30 151 -41 19 -3 42
-12 51 -19 8 -8 37 -18 63 -23 26 -5 53 -14 59 -20 6 -6 22 -11 35 -11 14 0
39 -9 56 -19 17 -11 49 -23 71 -27 22 -4 67 -20 100 -36 33 -15 68 -28 77 -28
9 0 19 -4 22 -9 3 -4 26 -14 51 -21 25 -7 48 -17 51 -21 3 -5 13 -9 23 -9 9 0
36 -9 59 -20 22 -11 52 -20 65 -20 13 0 32 -9 42 -20 10 -11 26 -20 35 -20 10
0 23 -7 30 -15 7 -8 20 -15 29 -15 10 0 26 -7 37 -15 10 -8 25 -15 31 -15 7 0
50 -17 95 -38 46 -22 101 -47 123 -57 35 -15 290 -141 353 -173 53 -28 63 -32
77 -32 8 0 20 -9 27 -20 7 -11 21 -20 30 -20 10 0 39 -16 64 -35 26 -20 59
-42 74 -50 14 -7 57 -34 95 -59 37 -25 72 -46 77 -46 6 0 24 -11 42 -25 84
-66 131 -103 174 -140 26 -22 59 -47 74 -54 16 -8 35 -25 43 -38 9 -13 34 -37
57 -53 77 -56 210 -191 349 -355 19 -22 37 -41 42 -43 4 -2 7 -8 7 -14 0 -10
42 -65 106 -137 42 -47 101 -146 187 -311 27 -52 55 -102 63 -111 8 -8 17 -31
21 -49 3 -19 15 -43 25 -54 10 -11 18 -26 18 -33 0 -7 4 -21 8 -31 37 -74 52
-113 60 -152 6 -25 19 -68 30 -96 10 -28 22 -69 26 -90 4 -21 16 -82 27 -134
35 -166 68 -394 61 -430 -7 -37 -6 -160 0 -160 13 0 9 -46 -6 -76 -11 -20 -12
-33 -5 -47 8 -13 7 -27 -1 -48 -7 -16 -10 -42 -7 -57 3 -17 -1 -41 -9 -58 -9
-16 -13 -41 -10 -55 3 -15 2 -30 -2 -33 -7 -7 -31 -104 -35 -141 -1 -11 -5
-24 -9 -30 -3 -5 -9 -32 -13 -60 -4 -27 -14 -57 -22 -66 -7 -9 -15 -36 -16
-60 -2 -24 -15 -70 -30 -101 -15 -31 -27 -65 -27 -75 0 -11 -7 -28 -15 -39 -8
-10 -15 -27 -15 -36 0 -10 -9 -32 -20 -50 -11 -18 -20 -41 -20 -51 0 -9 -4
-25 -10 -35 -21 -39 -60 -134 -60 -148 0 -8 -9 -32 -20 -54 -11 -22 -20 -48
-20 -60 0 -11 -4 -20 -9 -20 -5 0 -13 -10 -17 -22 -3 -13 -20 -50 -36 -83 -16
-33 -37 -80 -45 -105 -8 -25 -31 -62 -49 -83 -19 -20 -34 -43 -34 -50 0 -7
-11 -29 -25 -49 -14 -20 -25 -45 -25 -56 0 -10 -8 -27 -19 -38 -32 -35 -41
-62 -37 -110 10 -95 65 -110 145 -38 51 46 171 197 171 215 0 5 4 15 10 22 5
7 40 54 77 105 38 52 85 115 105 142 20 26 52 79 71 117 20 38 42 75 51 82 9
8 16 22 16 32 0 11 20 57 45 103 25 47 45 93 45 104 0 11 11 33 23 49 13 15
27 43 30 60 4 18 16 52 27 75 11 23 20 48 20 55 0 7 9 32 19 56 11 23 22 59
25 79 4 20 16 58 27 83 11 25 17 50 14 56 -4 5 -2 16 4 23 43 52 94 522 84
789 -6 196 -63 548 -106 662 -9 22 -13 50 -10 62 3 15 -2 25 -17 33 -15 8 -19
17 -15 31 4 13 2 19 -9 19 -20 0 -21 16 -1 24 19 7 20 26 1 26 -9 0 -16 14
-19 38 -6 51 -56 164 -79 180 -12 9 -17 20 -13 33 4 11 0 31 -9 44 -9 13 -16
29 -16 36 0 6 -13 31 -30 56 -16 24 -30 55 -30 68 0 14 -16 41 -40 66 -22 23
-40 51 -40 62 0 10 -23 44 -50 75 -33 37 -48 62 -45 73 4 11 -6 31 -25 52 -16
19 -30 41 -30 48 0 17 -69 93 -93 102 -9 3 -17 16 -17 27 0 11 -4 20 -9 20 -5
0 -13 10 -17 22 -8 26 -163 188 -180 188 -6 0 -14 14 -17 30 -4 18 -13 30 -22
30 -8 0 -15 7 -15 15 0 9 -7 18 -17 22 -9 3 -32 24 -51 45 -19 21 -42 38 -51
38 -10 0 -40 25 -67 56 -27 31 -67 68 -89 82 -22 14 -59 41 -81 61 -59 51 -98
81 -107 81 -4 0 -20 12 -35 26 -15 14 -58 46 -97 71 -38 25 -96 63 -127 84
-32 22 -62 39 -68 39 -5 0 -25 14 -43 30 -19 17 -41 30 -48 30 -8 0 -25 9 -39
20 -14 11 -32 20 -40 20 -8 0 -26 9 -40 20 -14 11 -28 20 -31 20 -4 0 -36 17
-70 38 -35 21 -80 44 -99 52 -19 8 -48 22 -65 32 -44 26 -136 68 -149 68 -6 0
-20 6 -31 14 -11 7 -31 17 -45 21 -14 4 -65 26 -115 50 -193 91 -223 105 -236
105 -8 0 -27 9 -44 20 -16 11 -37 20 -46 20 -9 0 -43 13 -75 29 -32 17 -99 44
-149 61 -49 18 -98 36 -108 41 -37 20 -175 72 -237 91 -36 10 -101 32 -145 47
-44 16 -100 34 -125 41 -25 6 -55 16 -68 21 -13 5 -32 9 -43 9 -10 0 -27 4
-37 9 -28 14 -87 31 -108 31 -11 0 -24 4 -30 8 -5 5 -43 19 -84 31 -41 13 -83
27 -92 32 -10 5 -26 9 -35 9 -21 0 -89 23 -99 33 -4 4 -16 7 -27 7 -22 0 -81
17 -109 31 -10 5 -29 9 -44 9 -14 0 -60 11 -102 25 -112 37 -123 40 -282 75
-80 17 -183 41 -230 52 -83 20 -153 33 -235 44 -22 4 -44 10 -49 15 -6 5 -34
9 -63 9 -29 0 -53 4 -53 9 0 8 -48 16 -155 27 -27 2 -61 9 -75 14 -14 5 -54
11 -90 14 -64 6 -110 13 -140 22 -18 6 -171 16 -250 16 -30 0 -60 4 -66 9 -6
5 -47 10 -90 10 -44 1 -107 6 -142 12 -49 8 -68 8 -83 -2 -15 -9 -24 -9 -34
-1 -7 6 -32 10 -56 10 -74 -2 -87 -2 -295 4 -111 3 -204 3 -206 0z"/>
<path d="M9629 17101 c-77 -24 -290 -161 -329 -212 -9 -11 -27 -26 -40 -32
-14 -7 -31 -25 -38 -40 -7 -15 -25 -30 -39 -33 -16 -4 -30 -19 -39 -40 -9 -22
-19 -31 -28 -28 -18 7 -106 -84 -106 -109 0 -10 -12 -23 -29 -30 -17 -7 -54
-39 -83 -71 -29 -33 -72 -79 -95 -103 -24 -24 -43 -50 -43 -59 0 -8 -11 -19
-25 -24 -14 -5 -25 -13 -25 -18 0 -5 -17 -27 -37 -48 -75 -79 -114 -128 -119
-151 -4 -13 -10 -23 -15 -23 -5 0 -9 -8 -9 -18 0 -10 -14 -26 -31 -36 -17 -10
-36 -30 -42 -44 -7 -14 -20 -35 -29 -46 -72 -86 -188 -247 -188 -261 0 -3 -15
-24 -32 -48 -18 -23 -42 -61 -52 -85 -10 -23 -23 -42 -28 -42 -5 0 -28 -39
-50 -87 -22 -49 -49 -99 -58 -113 -17 -24 -30 -47 -81 -137 -11 -21 -25 -42
-30 -47 -5 -6 -9 -20 -9 -31 0 -12 -11 -31 -25 -43 -13 -12 -28 -34 -31 -49
-4 -15 -22 -53 -41 -84 -18 -32 -33 -64 -33 -73 0 -8 -13 -41 -29 -73 -67
-134 -112 -233 -117 -265 -4 -18 -20 -57 -35 -86 -16 -29 -29 -60 -29 -67 0
-8 -9 -30 -20 -50 -11 -20 -20 -44 -20 -55 0 -10 -4 -22 -10 -25 -5 -3 -10
-15 -10 -26 0 -18 -3 -26 -27 -74 -5 -11 -20 -54 -33 -95 -12 -41 -26 -79 -31
-84 -5 -6 -9 -20 -9 -32 0 -13 -4 -25 -9 -28 -5 -4 -12 -25 -16 -49 -4 -23
-11 -49 -16 -58 -4 -9 -17 -52 -29 -95 -11 -43 -24 -88 -29 -99 -5 -11 -21
-74 -37 -140 -15 -66 -31 -125 -35 -130 -4 -6 -10 -28 -12 -50 -2 -22 -7 -47
-10 -55 -3 -8 -10 -37 -17 -65 -12 -51 -24 -101 -36 -145 -3 -14 -10 -50 -14
-80 -14 -88 -26 -142 -43 -190 -9 -25 -17 -70 -17 -100 0 -31 -4 -60 -9 -65
-5 -6 -12 -41 -14 -80 -8 -113 -16 -138 -41 -131 -11 4 -50 8 -85 11 -35 2
-68 9 -75 14 -6 5 -48 15 -93 22 -68 10 -85 10 -98 -1 -11 -9 -19 -10 -23 -3
-10 15 -95 10 -123 -8 -14 -9 -43 -14 -72 -13 -38 1 -54 -3 -77 -22 -29 -25
-55 -31 -65 -14 -11 18 -37 11 -60 -16 -16 -18 -29 -25 -40 -20 -15 5 -107
-33 -175 -74 -8 -5 -22 -11 -31 -14 -9 -2 -23 -18 -30 -35 -8 -19 -23 -33 -39
-36 -31 -7 -87 -57 -92 -81 -1 -10 -7 -16 -11 -15 -18 6 -67 -53 -67 -79 0
-30 -16 -50 -41 -50 -11 0 -20 -11 -24 -29 -3 -16 -17 -41 -31 -56 -13 -14
-24 -38 -24 -53 0 -16 -8 -34 -20 -42 -12 -8 -18 -21 -15 -31 3 -10 -1 -19
-10 -23 -8 -3 -15 -17 -15 -32 0 -15 -9 -41 -20 -59 -11 -18 -22 -45 -24 -61
-3 -29 -10 -50 -26 -89 -5 -11 -11 -38 -14 -60 -6 -54 -22 -126 -31 -148 -4
-11 -2 -29 5 -43 11 -19 11 -27 2 -36 -16 -16 -16 -171 0 -201 25 -49 28 -58
28 -82 0 -15 -6 -25 -14 -25 -16 0 -29 -27 -17 -34 4 -3 8 -32 8 -64 1 -54 9
-94 34 -160 5 -13 9 -38 9 -57 0 -28 5 -37 31 -51 23 -11 28 -19 20 -27 -14
-14 -14 -54 -1 -62 6 -3 10 -15 10 -25 0 -10 6 -31 14 -47 8 -15 21 -44 29
-63 40 -97 63 -142 105 -215 59 -102 119 -190 160 -235 18 -19 48 -53 67 -75
92 -108 295 -305 314 -305 11 0 25 -9 31 -20 6 -11 41 -40 78 -63 37 -24 80
-52 96 -63 59 -39 101 -65 116 -70 8 -3 23 -10 33 -15 23 -12 161 -19 196 -9
19 5 26 13 27 31 0 13 4 49 8 79 7 48 5 61 -14 93 -12 21 -30 37 -40 37 -26 0
-131 57 -147 80 -8 11 -19 20 -25 20 -5 0 -19 11 -29 24 -11 14 -30 28 -42 32
-19 6 -72 50 -141 120 -12 12 -36 40 -54 62 -23 29 -41 42 -63 44 -26 2 -33 9
-44 41 -7 22 -22 49 -33 60 -10 12 -22 30 -25 40 -4 9 -18 22 -32 29 -14 6
-25 19 -25 28 0 9 -16 35 -35 57 -19 23 -35 46 -35 52 0 13 -27 58 -47 79 -7
7 -17 30 -23 50 -5 20 -21 54 -36 75 -14 21 -23 44 -20 52 6 18 -32 118 -50
128 -10 5 -14 27 -14 67 0 42 -6 69 -21 95 -15 25 -20 46 -17 73 3 20 -1 87
-8 147 -16 127 -18 228 -5 253 18 35 30 89 35 153 4 44 14 83 31 114 14 27 25
58 25 70 0 19 36 98 59 130 4 6 14 30 21 54 8 25 26 52 42 64 15 11 28 29 28
39 0 23 58 78 82 78 10 0 23 9 30 20 7 11 21 20 30 20 10 0 33 14 51 30 19 17
40 30 46 30 7 0 22 6 34 14 12 8 54 20 92 27 39 6 75 16 82 21 6 5 45 12 85
15 123 10 163 9 163 -4 0 -19 14 -27 27 -16 27 21 74 22 107 2 21 -12 37 -17
44 -11 13 10 58 2 59 -11 0 -4 -2 -30 -6 -57 -5 -37 -2 -60 10 -85 8 -19 12
-39 8 -46 -9 -16 -17 -519 -7 -539 8 -18 9 -32 17 -170 4 -58 9 -132 11 -165
3 -33 6 -79 8 -102 2 -23 6 -45 10 -49 3 -4 -1 -20 -9 -35 -11 -22 -12 -34 -4
-49 6 -11 13 -60 15 -110 2 -49 8 -97 14 -107 5 -11 6 -25 1 -33 -5 -9 -4 -20
2 -28 7 -8 11 -48 9 -101 -1 -62 3 -99 15 -126 9 -22 17 -72 19 -111 2 -45 10
-82 20 -97 13 -21 14 -29 4 -45 -10 -16 -10 -26 2 -53 7 -19 12 -40 11 -47 -2
-8 4 -25 13 -39 9 -13 14 -31 11 -39 -8 -22 14 -166 30 -191 8 -12 11 -29 8
-38 -4 -8 1 -26 10 -40 9 -13 16 -44 16 -69 0 -25 5 -48 10 -51 6 -3 10 -21
10 -39 0 -18 11 -65 25 -104 13 -39 28 -97 31 -129 4 -32 13 -74 21 -93 9 -19
23 -65 33 -102 10 -37 27 -79 38 -93 15 -19 20 -35 15 -56 -4 -19 1 -38 13
-56 10 -16 17 -38 15 -50 -1 -11 3 -24 8 -28 6 -3 11 -16 11 -28 0 -13 7 -32
15 -44 8 -11 29 -65 46 -119 17 -55 44 -125 60 -157 16 -32 29 -69 29 -82 0
-29 10 -52 55 -130 19 -33 34 -70 35 -82 0 -12 4 -24 9 -28 5 -3 17 -29 27
-58 9 -28 30 -68 45 -87 16 -19 34 -57 41 -85 7 -27 21 -61 30 -75 16 -26 31
-54 67 -127 12 -23 25 -44 30 -48 11 -6 81 -148 81 -164 0 -6 8 -15 19 -20 10
-6 37 -45 58 -88 59 -115 165 -280 190 -296 7 -4 13 -16 13 -25 1 -9 14 -33
30 -52 17 -19 30 -39 30 -45 0 -5 13 -23 29 -38 17 -15 44 -52 61 -81 16 -30
37 -56 45 -59 8 -3 22 -21 31 -39 9 -18 45 -63 79 -99 34 -37 68 -80 76 -98 8
-17 17 -31 21 -31 4 0 14 -13 23 -30 9 -17 22 -30 30 -30 8 0 26 -17 39 -37
13 -21 38 -51 55 -68 17 -16 46 -46 64 -64 107 -115 274 -272 293 -277 13 -3
27 -20 36 -42 12 -30 27 -43 81 -70 49 -25 68 -41 76 -63 5 -16 16 -29 24 -29
8 0 22 -11 31 -25 9 -14 27 -27 40 -31 14 -3 27 -12 30 -20 3 -8 15 -14 26
-14 13 0 24 -9 30 -25 5 -13 24 -31 42 -38 18 -8 42 -24 52 -36 11 -11 25 -21
33 -21 7 0 23 -11 35 -26 13 -14 41 -34 63 -45 47 -23 131 -80 160 -109 12
-11 30 -20 41 -20 12 0 29 -9 39 -20 10 -11 26 -20 37 -20 10 0 26 -9 36 -21
9 -11 33 -27 52 -35 19 -8 42 -23 51 -33 10 -10 38 -22 63 -25 24 -4 57 -17
72 -29 34 -26 77 -51 124 -73 19 -9 51 -24 70 -34 19 -9 50 -21 68 -25 17 -3
53 -17 78 -31 25 -13 52 -24 61 -24 8 0 29 -6 46 -14 18 -8 51 -20 74 -26 23
-6 48 -16 55 -24 8 -7 46 -15 86 -18 52 -4 76 -10 85 -22 7 -9 30 -19 52 -23
22 -3 42 -9 45 -13 9 -13 343 -86 435 -95 22 -2 90 -9 150 -15 87 -9 277 -14
385 -11 8 1 51 -1 95 -3 48 -2 85 0 93 7 8 6 16 7 20 1 9 -12 85 -14 93 -2 3
5 51 10 107 12 64 1 106 7 116 15 10 8 35 12 68 9 49 -3 53 -1 56 20 3 23 21
29 37 13 6 -4 22 -11 38 -15 23 -5 29 -2 39 19 7 17 15 22 22 15 15 -11 126
-4 140 10 5 5 27 10 47 10 21 0 42 7 50 16 8 9 21 13 35 10 12 -3 38 1 58 9
19 8 49 15 65 15 20 0 34 7 41 20 6 11 18 20 28 20 9 0 50 10 90 22 53 17 72
27 72 40 0 23 16 32 24 13 10 -26 46 -16 81 21 27 28 40 35 58 30 28 -7 110
19 128 40 6 8 22 14 36 14 13 0 42 9 64 20 31 16 39 25 34 40 -3 10 -1 21 5
25 6 3 10 -3 10 -14 0 -25 11 -26 51 -5 20 10 29 21 25 30 -3 8 -1 25 4 38 7
18 14 22 34 19 14 -3 26 -12 26 -19 0 -20 26 -17 47 5 21 22 92 61 111 61 7 0
15 6 18 14 3 7 31 26 62 42 31 16 58 32 60 36 2 4 9 8 16 8 7 0 30 15 52 34
21 18 48 36 59 40 11 3 44 28 74 56 30 27 63 50 74 50 11 0 21 9 24 21 3 12
11 18 19 15 8 -3 30 9 50 26 31 28 35 36 30 66 -4 29 -3 32 9 22 8 -7 15 -19
15 -27 0 -26 24 -8 32 25 5 20 15 32 25 32 9 0 33 19 55 42 21 23 48 42 59 43
12 1 39 21 61 43 22 23 44 42 49 42 15 0 58 53 59 70 0 8 17 23 39 32 21 9 49
31 62 48 13 17 63 70 111 118 49 50 88 98 90 111 1 13 12 29 23 35 11 6 36 23
56 38 30 23 35 32 33 60 -2 18 -1 25 2 16 3 -10 9 -18 12 -18 10 1 52 37 52
46 0 4 20 29 45 55 25 26 45 57 45 68 0 11 22 40 49 66 27 26 51 58 54 74 4
17 14 31 26 34 28 7 36 33 17 53 -22 21 -16 38 15 42 13 2 29 13 37 23 7 10
20 19 28 19 8 0 14 6 13 13 -2 6 18 33 44 60 30 30 47 56 47 72 0 13 5 27 10
30 6 3 10 14 10 23 0 9 12 23 28 29 27 12 51 48 112 170 17 34 38 67 46 74 8
6 14 16 14 21 0 5 11 26 25 46 14 20 25 47 25 60 0 13 10 33 23 45 37 35 58
86 51 124 -6 30 -4 33 19 33 31 0 42 15 39 53 -2 19 6 35 23 51 14 13 25 30
25 39 0 9 4 18 9 21 5 3 7 16 4 27 -4 15 1 27 18 40 l24 19 -22 6 c-26 7 -31
24 -7 24 8 0 31 16 50 36 25 27 34 46 34 71 0 18 4 41 9 51 29 57 33 73 27
107 -7 34 -5 37 23 48 17 6 31 17 31 23 0 6 9 23 21 38 20 26 20 28 4 46 -15
17 -16 23 -4 49 8 17 17 31 20 31 4 0 9 9 12 21 3 11 14 23 25 26 14 3 21 16
25 46 4 23 15 60 27 82 23 45 26 75 8 93 -7 7 -9 13 -5 13 4 1 12 3 17 4 6 1
13 3 18 4 12 2 39 77 47 131 0 3 5 12 10 20 5 8 10 51 10 95 l0 79 41 12 c23
7 52 19 65 27 13 8 35 18 49 22 14 4 57 28 95 54 39 25 90 56 115 68 25 13 65
38 90 57 25 20 55 41 66 48 12 7 46 32 75 55 30 24 71 55 92 70 45 33 120 94
163 131 16 15 54 47 84 72 59 50 290 280 290 289 0 3 10 18 23 33 12 15 33 44
47 64 14 20 33 45 43 55 9 10 17 26 17 34 0 8 14 30 30 48 17 19 30 40 30 46
0 7 8 23 17 37 48 73 103 185 103 209 0 7 4 16 9 19 4 3 18 34 31 68 12 35 26
67 31 73 5 5 9 20 9 35 1 14 7 36 15 50 8 14 14 36 15 50 0 14 6 35 14 46 8
11 15 36 14 55 0 19 7 63 16 99 17 67 29 205 28 300 -1 30 -1 66 -1 80 2 97
-3 164 -16 200 -8 23 -15 70 -15 103 0 43 -6 69 -21 94 -13 20 -19 42 -16 55
6 21 -52 188 -76 218 -22 28 -37 60 -37 78 0 10 -11 29 -25 42 -14 13 -25 29
-25 35 0 6 -11 22 -25 35 -14 13 -25 29 -25 36 0 20 -39 74 -98 134 -28 30
-52 61 -52 69 0 17 -120 141 -137 141 -7 0 -13 6 -13 14 0 8 -14 25 -31 38
-16 13 -44 35 -61 51 -17 15 -41 30 -54 33 -12 3 -46 28 -75 55 -30 27 -63 49
-75 49 -12 0 -27 7 -34 15 -12 15 -153 85 -171 85 -5 0 -17 4 -27 9 -18 10
-156 40 -182 40 -8 0 -40 7 -70 16 -32 9 -70 13 -92 10 -22 -4 -46 -1 -60 6
-35 19 -81 21 -236 9 -153 -12 -214 -25 -260 -59 -17 -11 -43 -21 -59 -21 -16
0 -63 -18 -105 -40 -52 -27 -82 -37 -98 -33 -26 7 -70 42 -70 55 0 5 -15 24
-32 41 -42 41 -63 69 -82 104 -8 15 -26 39 -41 53 -14 14 -42 57 -61 97 -20
43 -41 73 -49 73 -10 0 -15 10 -15 30 0 17 -7 33 -17 38 -9 6 -14 16 -10 25 3
9 -7 32 -23 54 -16 21 -30 49 -30 61 0 13 -9 35 -20 49 -11 15 -20 41 -20 60
0 19 -9 48 -21 64 -11 16 -18 33 -15 38 7 11 -13 71 -30 92 -9 10 -12 27 -8
46 4 19 0 42 -11 63 -9 18 -15 44 -12 58 3 13 1 39 -4 56 -5 17 -11 87 -14
156 -3 69 -7 141 -9 160 -4 48 8 168 28 273 9 48 14 92 11 97 -3 5 1 23 10 39
8 17 15 45 15 63 0 33 20 101 33 114 4 4 7 17 7 28 0 12 6 30 14 41 7 11 17
35 21 54 4 18 17 48 30 67 12 18 26 50 30 70 3 20 12 46 20 58 7 12 16 40 20
63 6 36 4 43 -15 53 -28 15 -202 20 -249 8 -20 -6 -53 -12 -73 -15 -21 -3 -38
-9 -38 -14 0 -5 -22 -9 -49 -9 -28 0 -53 -4 -56 -10 -3 -5 -22 -10 -41 -10
-20 0 -44 -5 -56 -11 -11 -6 -42 -11 -68 -12 -27 -1 -52 -6 -56 -10 -4 -4 -36
-7 -70 -7 -35 0 -65 -3 -68 -8 -2 -4 -42 -9 -87 -10 -46 -1 -99 -6 -119 -11
-19 -4 -66 -7 -105 -5 -38 2 -76 3 -82 3 -46 -2 -103 -3 -133 -2 -19 1 -80 1
-135 1 -55 0 -120 1 -145 1 -25 1 -54 1 -65 1 -50 -2 -162 9 -185 18 -14 5
-34 6 -45 2 -21 -7 -74 -6 -165 5 -30 3 -77 8 -105 10 -27 2 -84 9 -125 15
-41 6 -108 13 -149 15 -41 3 -79 9 -85 15 -5 5 -26 10 -46 10 -20 0 -61 4 -91
10 -30 5 -72 12 -94 14 -35 5 -167 29 -290 55 -62 13 -178 43 -200 52 -11 4
-31 10 -45 12 -41 8 -241 67 -298 87 -29 11 -59 20 -67 20 -19 0 -122 48 -130
60 -3 6 -14 10 -24 10 -18 0 -107 32 -143 51 -10 5 -25 9 -33 9 -16 0 -56 20
-65 32 -8 10 -100 48 -117 48 -8 0 -27 8 -41 19 -22 15 -140 71 -202 95 -8 3
-22 10 -30 15 -8 6 -71 37 -140 71 -69 33 -134 66 -145 73 -45 28 -91 52 -100
52 -16 1 -76 36 -98 56 -12 10 -25 19 -30 19 -5 0 -32 15 -60 33 -29 19 -81
50 -117 70 -36 19 -87 52 -115 71 -27 20 -55 36 -62 36 -7 0 -16 6 -20 13 -4
8 -28 27 -53 43 -25 16 -77 52 -116 81 -39 29 -76 53 -81 53 -6 0 -13 6 -16
14 -3 8 -22 22 -41 31 -20 10 -36 21 -36 26 0 5 -24 25 -52 45 -80 53 -111 76
-149 112 -19 17 -39 32 -44 32 -15 0 -215 200 -215 215 0 7 -9 19 -19 26 -10
8 -40 32 -66 54 -35 29 -57 40 -84 40 -20 1 -54 4 -76 8 -22 3 -52 2 -66 -2z
m72 -322 c19 -37 72 -102 137 -168 34 -36 62 -68 62 -73 0 -5 11 -13 25 -18
14 -5 28 -17 31 -25 4 -8 14 -15 24 -15 10 0 20 -9 23 -20 3 -11 21 -29 41
-41 20 -11 36 -25 36 -29 0 -5 9 -12 20 -15 11 -3 26 -12 33 -18 19 -18 87
-69 135 -101 24 -16 46 -34 50 -40 9 -13 70 -61 137 -106 28 -18 73 -52 100
-76 28 -23 70 -50 96 -61 25 -11 61 -33 80 -50 33 -29 174 -113 188 -113 4 0
25 -15 47 -34 22 -18 62 -41 89 -51 28 -9 59 -24 70 -34 24 -22 83 -51 102
-51 7 0 13 -4 13 -9 0 -5 24 -21 53 -35 28 -15 75 -40 102 -56 28 -16 55 -29
62 -29 7 -1 28 -12 47 -24 34 -24 154 -85 191 -98 25 -8 65 -26 85 -37 8 -5
24 -13 35 -19 11 -5 29 -15 40 -20 71 -37 109 -53 123 -53 10 0 32 -9 50 -20
18 -11 40 -20 50 -20 10 0 23 -5 28 -10 12 -12 96 -45 181 -70 34 -10 72 -26
85 -34 12 -9 34 -16 48 -16 14 0 34 -6 45 -14 11 -7 47 -21 80 -30 33 -9 76
-21 95 -27 19 -6 46 -13 60 -15 14 -3 34 -9 45 -13 48 -19 93 -31 119 -31 15
0 36 -4 46 -10 10 -5 43 -11 74 -13 30 -2 59 -6 62 -10 4 -4 18 -7 30 -7 13 0
25 -4 28 -9 7 -11 109 -30 168 -30 27 0 56 -5 66 -10 9 -5 48 -12 85 -15 37
-3 72 -8 78 -12 6 -3 43 -8 82 -10 40 -2 90 -7 112 -10 22 -3 65 -7 95 -8 30
-1 71 -7 90 -13 19 -6 89 -15 155 -19 131 -8 124 -7 210 -5 33 2 74 -2 91 -7
22 -7 35 -7 43 1 8 8 16 8 29 1 17 -11 39 -10 113 2 24 4 45 1 60 -9 19 -11
42 -13 104 -7 44 4 89 4 100 0 11 -4 36 -5 55 -3 19 3 53 5 75 5 75 1 205 20
205 30 0 6 11 8 28 4 49 -13 82 -14 88 -5 3 5 34 9 69 8 44 -1 69 3 86 15 13
9 40 16 61 16 22 0 40 6 45 15 5 9 28 16 59 18 28 3 60 9 72 16 11 6 22 11 25
11 11 0 -2 -79 -23 -135 -25 -68 -33 -97 -44 -152 -7 -35 -11 -65 -9 -67 3 -2
-2 -15 -10 -28 -10 -15 -15 -51 -16 -108 0 -47 -5 -121 -10 -165 -5 -44 -7
-83 -4 -88 2 -4 6 -60 8 -125 2 -64 9 -142 15 -172 6 -30 15 -92 20 -138 5
-46 16 -97 25 -114 8 -17 15 -42 15 -56 0 -23 28 -117 50 -167 5 -11 12 -34
15 -52 3 -17 13 -37 21 -44 8 -6 14 -22 14 -35 0 -12 5 -26 10 -29 6 -3 10
-17 10 -31 0 -13 5 -24 10 -24 6 0 10 -6 10 -14 0 -17 88 -183 101 -191 5 -4
9 -14 9 -23 0 -10 13 -33 30 -52 16 -19 29 -38 30 -42 1 -33 220 -278 247
-278 7 0 26 -13 41 -29 27 -30 70 -59 130 -86 17 -8 32 -20 32 -26 0 -6 13 -7
35 -3 21 4 41 2 48 -5 8 -6 35 -12 61 -14 37 -4 49 -1 54 12 8 23 23 31 60 31
39 0 66 13 107 50 44 40 87 54 149 47 34 -3 58 -1 65 6 17 17 102 34 131 26
41 -12 115 -10 128 3 9 9 15 9 24 0 7 -7 36 -12 64 -12 29 0 56 -4 59 -10 3
-5 24 -10 45 -10 21 0 42 -4 45 -10 3 -5 14 -10 24 -10 9 0 36 -9 59 -20 22
-11 47 -20 55 -20 7 0 17 -4 23 -9 5 -5 22 -11 39 -13 19 -2 34 -11 41 -26 13
-26 56 -52 86 -52 22 0 65 -37 146 -126 12 -14 27 -22 32 -19 6 4 17 -9 25
-29 8 -19 24 -40 34 -46 11 -5 23 -19 26 -31 4 -11 18 -24 31 -29 18 -7 24
-17 24 -39 0 -20 9 -36 28 -51 15 -12 27 -25 27 -28 1 -13 40 -67 62 -85 15
-12 23 -29 23 -48 0 -35 16 -69 40 -86 10 -7 21 -33 25 -60 4 -26 14 -61 23
-78 9 -16 17 -37 19 -45 12 -85 24 -151 33 -180 7 -24 7 -51 0 -86 -8 -35 -8
-59 0 -78 14 -39 13 -88 -5 -129 -8 -20 -15 -55 -15 -77 0 -23 -5 -50 -11 -61
-8 -16 -7 -25 7 -40 15 -17 16 -21 2 -36 -9 -10 -18 -34 -22 -55 -4 -20 -12
-38 -20 -41 -7 -3 -18 -38 -26 -84 -7 -43 -17 -82 -21 -88 -5 -5 -9 -17 -9
-27 0 -10 -14 -30 -30 -45 -17 -15 -29 -34 -27 -42 1 -9 -4 -21 -12 -28 -10
-7 -15 -24 -13 -46 3 -32 1 -36 -25 -39 -16 -2 -27 -8 -25 -16 1 -6 -4 -11
-10 -10 -8 2 -14 -9 -16 -24 -2 -16 -9 -28 -18 -28 -8 0 -14 -9 -14 -20 0 -11
-4 -20 -10 -20 -5 0 -17 -15 -26 -32 -9 -18 -23 -37 -30 -41 -8 -4 -14 -13
-14 -18 0 -14 -143 -159 -157 -159 -14 0 -53 -53 -53 -72 0 -13 -18 -26 -60
-42 -27 -10 -54 -30 -102 -73 -26 -24 -55 -43 -66 -43 -10 0 -28 -13 -40 -30
-13 -16 -28 -30 -36 -30 -7 0 -32 -18 -56 -39 -25 -22 -59 -42 -77 -46 -18 -3
-33 -9 -33 -14 0 -4 -16 -15 -35 -24 -29 -14 -35 -22 -35 -47 0 -29 -1 -30
-51 -30 -52 0 -79 -10 -114 -40 -11 -10 -37 -24 -57 -31 -21 -7 -38 -15 -38
-19 0 -3 -25 -16 -55 -30 -29 -14 -58 -35 -64 -46 -6 -13 -23 -25 -43 -29 -18
-4 -38 -12 -45 -17 -6 -5 -26 -8 -44 -6 -35 3 -41 -3 -59 -72 -7 -25 -19 -63
-28 -85 -14 -38 -17 -51 -20 -117 -1 -15 -9 -33 -17 -42 -8 -8 -15 -21 -15
-29 0 -8 -7 -28 -15 -43 -8 -16 -15 -38 -15 -48 0 -23 -18 -82 -33 -111 -11
-20 -30 -102 -48 -205 -6 -38 -17 -62 -35 -77 -28 -25 -57 -99 -50 -126 2 -10
-4 -21 -15 -27 -15 -8 -19 -22 -19 -59 0 -40 -5 -54 -30 -81 -16 -18 -30 -42
-30 -55 0 -12 -9 -30 -20 -40 -11 -10 -20 -24 -20 -32 0 -8 -9 -27 -21 -42
-16 -22 -20 -40 -18 -74 4 -41 2 -47 -18 -52 -23 -5 -32 -38 -13 -50 12 -7 2
-35 -13 -35 -18 0 -57 -43 -57 -63 0 -11 -20 -46 -45 -79 -25 -33 -45 -66 -45
-74 0 -12 -35 -71 -59 -100 -5 -7 -13 -28 -16 -47 -4 -20 -20 -50 -36 -67 -22
-22 -28 -36 -23 -54 4 -19 1 -26 -15 -31 -12 -3 -21 -11 -21 -16 0 -5 -14 -23
-30 -41 -16 -17 -30 -38 -30 -46 0 -8 -8 -22 -19 -31 -10 -9 -29 -38 -41 -64
-12 -26 -31 -52 -41 -58 -11 -5 -19 -15 -19 -22 0 -7 -9 -20 -20 -30 -11 -9
-20 -23 -20 -30 0 -8 -11 -24 -25 -37 -13 -13 -38 -52 -54 -87 -17 -36 -36
-63 -45 -63 -22 0 -48 -31 -43 -51 3 -13 -2 -19 -17 -21 -22 -3 -37 -48 -16
-48 7 0 -1 -13 -17 -30 -15 -17 -38 -30 -50 -30 -16 0 -31 -13 -49 -42 -15
-24 -40 -54 -56 -67 -22 -18 -28 -29 -24 -46 5 -18 2 -22 -12 -19 -11 4 -29
-9 -52 -37 -19 -23 -56 -62 -82 -87 -27 -25 -48 -51 -48 -59 0 -7 -8 -16 -17
-20 -10 -3 -52 -41 -93 -84 -42 -44 -80 -79 -84 -79 -5 0 -33 -23 -63 -50 -30
-28 -79 -70 -109 -93 -36 -28 -54 -49 -54 -64 0 -17 -8 -24 -36 -29 -20 -4
-46 -18 -58 -31 -11 -14 -42 -36 -69 -49 -26 -14 -59 -38 -74 -54 -14 -17 -34
-30 -43 -30 -10 0 -23 -7 -30 -15 -6 -8 -40 -30 -74 -49 -34 -19 -70 -44 -80
-55 -11 -12 -23 -21 -27 -21 -5 0 -30 -13 -56 -30 -26 -16 -54 -30 -62 -30 -9
0 -29 -13 -44 -30 -16 -16 -35 -30 -43 -30 -22 0 -148 -61 -157 -75 -4 -7 -31
-21 -60 -31 -28 -9 -59 -23 -68 -30 -8 -8 -23 -14 -33 -14 -20 0 -64 -27 -89
-55 -13 -14 -20 -16 -23 -7 -8 17 -34 15 -82 -8 -22 -11 -48 -20 -57 -20 -9 0
-19 -9 -22 -19 -4 -16 -11 -18 -37 -14 -22 3 -36 0 -45 -11 -8 -9 -28 -16 -47
-16 -19 0 -42 -4 -52 -8 -88 -43 -111 -52 -137 -50 -35 1 -261 -39 -278 -49
-22 -13 -111 -25 -197 -25 -66 0 -87 -3 -96 -16 -10 -14 -14 -14 -28 -3 -12
10 -22 11 -43 2 -30 -12 -332 -9 -351 3 -7 4 -23 0 -36 -9 -14 -9 -30 -14 -35
-10 -28 16 -129 35 -162 30 -22 -4 -55 -1 -81 7 -23 8 -69 13 -101 12 -31 -1
-60 2 -62 6 -3 5 -36 12 -73 16 -37 3 -78 11 -92 16 -57 22 -119 35 -129 25
-5 -5 -18 -4 -32 4 -13 7 -31 12 -40 11 -9 -2 -33 6 -53 18 -20 11 -45 20 -56
20 -10 0 -22 5 -25 10 -3 6 -19 10 -34 10 -29 0 -90 22 -198 71 -34 16 -74 31
-90 35 -15 4 -34 13 -41 21 -7 7 -26 13 -41 13 -16 0 -34 7 -41 15 -7 8 -23
15 -35 15 -12 0 -28 7 -35 14 -6 8 -28 20 -48 27 -20 6 -49 20 -64 30 -14 11
-29 19 -33 19 -3 0 -22 11 -42 24 -19 14 -42 22 -49 19 -8 -3 -25 9 -40 26
-15 18 -35 31 -48 31 -13 0 -31 9 -41 20 -10 11 -24 20 -30 20 -7 0 -18 7 -26
16 -7 9 -21 13 -33 10 -22 -6 -56 19 -56 40 0 8 -15 20 -34 28 -19 8 -42 26
-51 40 -9 13 -29 28 -45 31 -16 3 -34 12 -40 20 -6 8 -35 29 -63 47 -29 18
-83 61 -121 95 -38 35 -79 66 -92 69 -13 4 -24 12 -24 19 0 7 -19 28 -42 48
-24 19 -61 51 -83 72 -22 20 -52 43 -67 51 -15 8 -41 35 -59 60 -17 25 -63 78
-103 118 -171 172 -315 335 -352 398 -6 11 -22 31 -36 46 -13 15 -32 39 -41
54 -9 14 -26 29 -37 33 -11 3 -23 17 -26 30 -3 13 -14 31 -25 41 -10 9 -28 36
-39 60 -12 24 -30 46 -41 49 -11 4 -22 19 -25 35 -4 15 -24 47 -46 69 -21 23
-45 58 -52 79 -16 43 -55 107 -85 138 -12 12 -21 29 -21 39 0 10 -12 34 -27
54 -34 44 -53 79 -53 98 0 8 -22 36 -50 64 -27 27 -50 58 -50 67 0 29 -22 81
-104 247 -43 88 -82 169 -86 180 -4 11 -21 50 -39 86 -17 36 -31 70 -31 77 0
6 -8 17 -17 24 -20 15 -45 76 -37 89 3 5 -10 42 -29 82 -19 39 -40 92 -47 117
-16 56 -52 140 -59 140 -3 0 -7 20 -8 45 -1 28 -11 62 -27 90 -14 24 -26 57
-26 73 0 16 -12 60 -26 98 -14 38 -30 87 -34 109 -5 22 -13 53 -19 68 -6 16
-11 39 -11 53 0 13 -4 32 -9 42 -15 30 -31 87 -31 112 0 13 -6 31 -14 39 -8 9
-19 50 -25 91 -17 107 -28 168 -41 220 -6 25 -13 61 -14 81 -2 20 -9 45 -15
56 -6 12 -13 52 -15 89 -3 38 -10 94 -16 124 -13 65 -29 162 -33 206 -2 16 -7
36 -11 42 -4 7 -9 58 -12 115 -2 56 -9 135 -14 174 -18 132 -28 423 -22 628 1
28 1 70 1 95 -2 189 17 776 26 790 4 6 8 52 10 103 2 51 8 111 14 134 6 23 15
84 21 135 5 51 12 109 15 128 3 19 7 51 8 70 2 19 8 48 15 63 7 16 9 39 6 53
-3 13 -2 30 3 37 6 6 13 28 16 47 4 19 16 78 28 130 12 52 23 119 26 148 3 28
9 52 15 52 6 0 7 7 4 16 -3 9 1 25 9 37 8 12 15 34 15 49 0 15 5 30 10 33 6 3
10 28 10 55 0 27 5 52 10 55 6 3 10 14 10 24 0 10 8 40 18 67 17 43 82 245
102 314 4 14 12 41 18 60 6 19 13 50 17 68 4 18 15 37 26 42 10 6 19 21 19 34
0 12 3 26 7 29 3 4 8 21 10 38 2 18 17 58 33 91 17 32 30 65 30 73 0 15 42 98
61 121 6 7 8 18 4 24 -4 6 0 19 8 28 8 9 18 28 22 42 9 32 27 74 81 184 24 48
42 92 39 96 -2 4 7 22 20 40 14 19 25 40 25 47 0 7 9 21 20 30 11 10 20 24 20
33 0 8 16 42 35 75 20 33 46 84 60 113 13 29 38 66 55 83 16 17 30 39 30 48 0
10 9 30 20 44 11 14 20 32 20 41 0 9 6 19 14 22 7 3 26 29 41 57 38 70 112
182 130 197 8 7 15 18 15 25 0 7 7 18 15 25 9 7 23 29 32 49 23 49 84 138 125
182 39 43 57 65 80 100 9 14 23 33 30 40 7 8 33 37 58 65 170 191 250 276 388
417 20 21 49 40 63 43 15 3 32 17 40 30 7 13 18 24 25 24 8 0 23 14 36 30 12
17 27 30 33 30 6 0 40 25 75 55 35 30 69 55 76 55 7 0 18 -10 25 -21z m7259
-8049 c0 -5 -4 -10 -10 -10 -5 0 -10 5 -10 10 0 6 5 10 10 10 6 0 10 -4 10
-10z m-3975 -3720 c-3 -5 -10 -10 -16 -10 -5 0 -9 5 -9 10 0 6 7 10 16 10 8 0
12 -4 9 -10z"/>
<path d="M13679 12176 c-3 -3 -20 -8 -39 -11 -86 -15 -226 -71 -251 -101 -6
-8 -16 -14 -21 -14 -40 0 -308 -267 -308 -308 0 -6 -10 -23 -23 -39 -26 -31
-40 -56 -86 -154 -17 -37 -31 -74 -31 -83 0 -9 -6 -27 -14 -39 -53 -81 -101
-378 -91 -557 23 -385 194 -681 480 -827 176 -91 456 -64 633 60 95 66 180
137 212 177 18 22 45 47 61 56 17 8 29 23 29 34 0 11 9 24 20 30 11 6 20 19
20 29 0 10 9 26 21 37 12 10 33 41 48 68 83 154 90 171 84 198 -3 17 -1 28 6
28 6 0 11 7 11 15 0 9 9 25 20 37 11 12 20 33 20 47 0 14 4 32 9 40 6 9 5 24
-2 38 -8 17 -7 27 1 35 27 27 3 115 -31 117 -12 0 -37 2 -56 3 -31 3 -36 -1
-57 -40 -13 -24 -26 -53 -30 -65 -13 -43 -61 -142 -75 -154 -34 -27 -92 -53
-120 -53 -33 0 -63 27 -106 99 -92 152 -120 503 -58 721 9 30 18 66 21 80 3
14 9 34 14 45 5 11 13 36 19 55 17 64 34 104 78 194 33 67 41 91 33 101 -6 8
-44 26 -83 41 -40 15 -76 30 -82 34 -23 16 -109 30 -188 30 -46 0 -86 -2 -88
-4z"/>
<path d="M9847 12153 c-4 -3 -31 -10 -60 -14 -70 -9 -195 -67 -260 -121 -164
-134 -250 -241 -335 -421 -119 -249 -152 -399 -155 -698 -1 -143 1 -163 32
-283 18 -71 36 -136 41 -145 5 -9 19 -38 31 -66 62 -140 86 -178 176 -276 72
-77 209 -169 253 -169 9 0 20 -4 25 -8 38 -33 259 -44 362 -17 164 42 376 200
479 354 74 113 116 180 140 224 43 83 84 212 84 267 0 31 8 66 20 90 15 30 20
58 19 124 l-1 86 -39 2 c-21 1 -47 2 -56 2 -12 1 -22 -14 -33 -49 -26 -84
-114 -195 -155 -195 -8 0 -24 -6 -35 -12 -16 -10 -24 -10 -40 0 -11 6 -31 12
-45 12 -48 0 -115 125 -152 285 -21 93 -23 308 -4 415 31 168 95 329 165 416
51 62 51 69 -7 108 -60 41 -89 53 -174 75 -80 21 -261 30 -276 14z"/>
<path d="M11340 12017 c-74 -37 -85 -45 -83 -67 1 -14 2 -63 3 -110 1 -47 6
-93 11 -102 9 -16 16 -212 18 -448 0 -89 -6 -156 -15 -172 -3 -4 0 -24 6 -43
9 -26 8 -50 -4 -107 -8 -40 -15 -120 -15 -178 -1 -58 -5 -152 -10 -210 -5 -58
-9 -170 -10 -250 -1 -80 -6 -197 -11 -260 -12 -136 -7 -602 8 -745 6 -55 17
-120 25 -145 8 -25 18 -67 22 -95 3 -27 10 -63 15 -80 5 -16 16 -58 26 -92 9
-35 25 -70 36 -79 10 -10 18 -27 18 -39 0 -23 23 -71 73 -152 40 -65 164 -203
182 -203 7 0 24 -14 37 -31 14 -16 40 -36 59 -42 19 -7 53 -25 76 -40 24 -15
48 -27 54 -27 6 0 22 -9 36 -20 16 -12 41 -20 64 -20 22 0 39 -4 39 -8 0 -9
64 -25 145 -37 23 -3 53 -1 68 4 26 10 27 14 27 78 0 45 -6 80 -18 103 -15 30
-22 35 -57 38 -22 1 -47 5 -55 9 -59 24 -146 50 -153 46 -4 -2 -20 6 -36 19
-16 13 -55 41 -86 63 -32 22 -68 51 -81 65 -64 66 -114 129 -114 142 0 9 -9
27 -20 41 -11 14 -20 30 -20 36 0 6 -13 38 -30 72 -16 33 -36 97 -44 141 -8
44 -21 87 -27 95 -7 7 -13 37 -15 66 -1 29 -7 129 -13 222 -10 179 -7 495 9
730 5 77 12 209 14 293 3 84 10 170 16 190 5 21 10 80 11 132 0 52 5 131 9
175 16 143 10 625 -10 895 -16 214 -28 223 -180 147z"/>
<path d="M12764 7585 c-37 -12 -154 -73 -175 -91 -8 -8 -22 -14 -30 -14 -8 0
-43 -18 -77 -40 -33 -22 -70 -40 -81 -40 -11 0 -23 -4 -26 -10 -3 -5 -14 -10
-25 -10 -16 0 -42 -11 -130 -55 -14 -7 -45 -16 -70 -20 -25 -4 -56 -13 -70
-19 -14 -7 -33 -11 -43 -8 -10 2 -26 -3 -35 -11 -9 -8 -35 -17 -57 -21 -22 -3
-65 -11 -95 -16 -30 -6 -87 -11 -127 -10 -43 0 -74 -4 -78 -11 -5 -6 -20 -8
-40 -5 -22 5 -36 2 -45 -9 -16 -19 -40 -19 -40 0 0 10 -11 16 -32 17 -72 3
-88 5 -117 17 -16 7 -34 10 -40 7 -6 -4 -20 -2 -33 5 -17 9 -24 9 -33 -5 -8
-10 -19 -14 -29 -10 -28 11 -76 -15 -76 -42 0 -12 -4 -26 -10 -29 -5 -3 -10
-30 -10 -58 1 -85 35 -113 195 -157 50 -14 108 -21 206 -26 52 -3 123 -6 159
-9 36 -2 101 1 145 6 44 5 107 11 140 13 33 2 73 8 88 15 16 6 44 11 63 11 19
0 47 6 62 14 15 7 49 16 76 20 27 3 59 12 71 20 12 8 42 17 68 21 25 4 48 13
51 21 3 8 12 14 21 14 20 0 77 29 90 46 6 7 28 15 49 17 23 3 46 14 55 25 9
11 32 22 51 26 33 6 110 65 110 84 0 5 17 12 39 16 28 4 45 15 63 38 32 44 52
110 44 145 -4 15 -10 41 -13 56 -3 16 -17 42 -32 58 -24 26 -32 28 -87 26 -33
-1 -73 -6 -90 -12z"/>
<path d="M5460 10880 c0 -11 5 -20 10 -20 6 0 10 9 10 20 0 11 -4 20 -10 20
-5 0 -10 -9 -10 -20z"/>
</g>
</svg>
