<?xml version="1.0" standalone="no"?>
<!DOCTYPE svg PUBLIC "-//W3C//DTD SVG 20010904//EN"
 "http://www.w3.org/TR/2001/REC-SVG-20010904/DTD/svg10.dtd">
<svg version="1.0" xmlns="http://www.w3.org/2000/svg"
 width="500.000000pt" height="500.000000pt" viewBox="0 0 500.000000 500.000000"
 preserveAspectRatio="xMidYMid meet">

<g transform="translate(0.000000,500.000000) scale(0.100000,-0.100000)"
fill="#000000" stroke="none">
<path d="M2460 3742 c-234 -13 -504 -185 -595 -378 -14 -30 -23 -59 -20 -64 3
-5 1 -11 -4 -14 -28 -17 -40 -319 -18 -416 15 -61 23 -142 20 -186 -1 -27 3
-60 9 -75 10 -23 15 -25 32 -15 53 29 56 35 56 120 0 45 9 133 20 196 11 63
20 116 20 117 0 14 258 113 293 113 23 0 188 56 249 84 93 43 167 91 240 156
66 60 68 61 77 38 10 -27 82 -187 136 -303 98 -212 150 -378 143 -457 -2 -20
0 -34 4 -32 3 2 9 0 13 -6 4 -6 11 -8 16 -4 13 8 39 -14 39 -33 0 -11 -9 -13
-35 -10 l-35 5 0 -44 0 -44 39 39 c22 22 57 45 79 51 l38 12 20 97 c28 140 26
379 -4 476 -51 166 -263 425 -404 494 -107 52 -304 91 -428 83z"/>
<path d="M2193 2783 c9 -2 25 -2 35 0 9 3 1 5 -18 5 -19 0 -27 -2 -17 -5z"/>
<path d="M2807 2749 c7 -7 15 -10 18 -7 3 3 -2 9 -12 12 -14 6 -15 5 -6 -5z"/>
<path d="M2208 2743 c18 -2 45 -2 60 0 15 2 0 4 -33 4 -33 0 -45 -2 -27 -4z"/>
<path d="M2398 2678 c2 -10 6 -18 7 -18 1 0 5 8 7 18 3 11 0 19 -7 19 -7 0
-10 -8 -7 -19z"/>
<path d="M2188 2655 c-10 -22 -9 -29 9 -46 17 -17 24 -19 42 -10 12 7 21 22
21 34 0 49 -53 64 -72 22z"/>
<path d="M2468 2663 c7 -3 16 -2 19 1 4 3 -2 6 -13 5 -11 0 -14 -3 -6 -6z"/>
<path d="M2705 2646 c-13 -19 -14 -29 -5 -45 15 -28 36 -26 57 5 12 19 14 30
6 43 -16 25 -40 24 -58 -3z"/>
<path d="M1927 2576 c-17 -13 -17 -14 0 -20 10 -4 14 -4 10 0 -4 4 -2 13 4 21
14 17 9 16 -14 -1z"/>
<path d="M2110 2536 c0 -2 7 -7 16 -10 8 -3 12 -2 9 4 -6 10 -25 14 -25 6z"/>
<path d="M2775 2530 c-3 -6 1 -7 9 -4 18 7 21 14 7 14 -6 0 -13 -4 -16 -10z"/>
</g>
</svg>
